<svg xmlns="http://www.w3.org/2000/svg" width="920" height="620" viewBox="0 0 920 620">
  <style>
    .title { font: bold 24px sans-serif; }
    .label { font: 15px sans-serif; }
    .node { fill: #ffffff; stroke: #2d6a4f; stroke-width: 2; rx: 12; ry: 12; }
    .group { fill: #f0fff4; stroke: #2d6a4f; stroke-dasharray: 6 4; stroke-width: 2; }
    .link { stroke: #2d6a4f; stroke-width: 2; marker-end: url(#arrow); }
  </style>
  <defs>
    <marker id="arrow" markerWidth="10" markerHeight="10" refX="9" refY="3" orient="auto">
      <path d="M0,0 L9,3 L0,6 z" fill="#2d6a4f" />
    </marker>
  </defs>
  <text x="30" y="40" class="title">Teleoperation UI Architecture</text>

  <rect class="node" x="60" y="260" width="140" height="80" />
  <text x="98" y="306" class="label">Driver</text>

  <rect class="group" x="240" y="140" width="300" height="360" />
  <text x="260" y="170" class="label">Frontend</text>
  <rect class="node" x="270" y="200" width="240" height="60" />
  <text x="320" y="236" class="label">Responsive Layout</text>
  <rect class="node" x="270" y="280" width="240" height="60" />
  <text x="302" y="316" class="label">Control Panel</text>
  <text x="302" y="336" class="label">(Gamepad + Touch)</text>
  <rect class="node" x="270" y="360" width="240" height="60" />
  <text x="318" y="396" class="label">Video Player</text>
  <rect class="node" x="270" y="440" width="240" height="60" />
  <text x="308" y="476" class="label">Metrics HUD</text>
  <rect class="node" x="270" y="520" width="240" height="60" />
  <text x="316" y="556" class="label">Session Settings</text>

  <rect class="group" x="600" y="220" width="240" height="220" />
  <text x="620" y="250" class="label">Backend APIs</text>
  <rect class="node" x="630" y="280" width="180" height="50" />
  <text x="660" y="312" class="label">/api/control</text>
  <rect class="node" x="630" y="350" width="180" height="50" />
  <text x="658" y="382" class="label">/api/telemetry</text>
  <rect class="node" x="630" y="420" width="180" height="50" />
  <text x="654" y="452" class="label">/api/signaling</text>

  <line class="link" x1="200" y1="300" x2="270" y2="230" />
  <line class="link" x1="390" y1="260" x2="720" y2="305" />
  <line class="link" x1="390" y1="340" x2="720" y2="305" />
  <line class="link" x1="390" y1="420" x2="720" y2="375" />
  <line class="link" x1="390" y1="500" x2="720" y2="445" />
  <line class="link" x1="390" y1="580" x2="720" y2="445" />
</svg>
